<svg viewBox="0 0 760 620" xmlns="http://www.w3.org/2000/svg" fill="none">
  <defs><linearGradient id="o" x1="0" x2="1"><stop stop-color="#ff8a24"/><stop offset="1" stop-color="#b94a10"/></linearGradient><filter id="glow"><feGaussianBlur stdDeviation="7" result="b"/><feMerge><feMergeNode in="b"/><feMergeNode in="SourceGraphic"/></feMerge></filter></defs>
  <g opacity=".2" stroke="white"><path d="M40 80h680M40 180h680M40 280h680M40 380h680M40 480h680"/><path d="M120 40v540M260 40v540M400 40v540M540 40v540M680 40v540"/></g>
  <g filter="url(#glow)">
    <rect x="300" y="42" width="175" height="78" rx="27" fill="url(#o)" stroke="white" stroke-width="4"/>
    <rect x="250" y="125" width="285" height="270" rx="45" fill="url(#o)" stroke="white" stroke-width="4"/>
    <rect x="210" y="405" width="360" height="105" rx="35" fill="url(#o)" stroke="white" stroke-width="4"/>
    <path d="M235 270H120c-31 0-56 25-56 56v32h166" stroke="white" stroke-width="9"/>
    <path d="M540 270h108c31 0 56 25 56 56v32H548" stroke="white" stroke-width="9"/>
    <path d="M295 510v70M470 510v70M210 580h360" stroke="white" stroke-width="8"/>
    <path d="M390 580v-70" stroke="white" stroke-width="12"/>
    <path d="M320 150v225M385 150v225M450 150v225" stroke="#3b1307" stroke-opacity=".35" stroke-width="8"/>
  </g>
</svg>
