<?xml version="1.0" encoding="UTF-8"?>
<!-- Generated by Pixelmator Pro 3.8 -->
<svg width="2983" height="700" viewBox="0 0 2983 700" xmlns="http://www.w3.org/2000/svg">
    <g id="Group">
        <path id="A-copy" fill="#c45c2e" fill-rule="evenodd" stroke="none" d="M 1825 569 L 1818.255493 569 L 1818.876953 544.270081 L 1781.009277 544.270081 C 1778.073364 548.157593 1774.930176 552.267456 1771.57959 556.599915 C 1768.229004 560.932373 1765.029419 565.065674 1761.980835 569 L 1756.009155 569 C 1761.237305 562.349121 1766.373413 555.838867 1771.417358 549.468994 C 1776.461182 543.099121 1781.479126 536.764465 1786.471191 530.464844 C 1791.463135 524.165283 1796.481079 517.830627 1801.524902 511.460754 C 1806.568848 505.090881 1811.695435 498.604065 1816.904663 492 L 1824.843506 492 Z M 1819.057251 539.843994 L 1818.575317 497.058411 L 1784.280884 539.843994 Z"/>
        <text id="MODERN-B-RBER" xml:space="preserve" x="347.596875" y="571" font-family="Microsoft Yi Baiti" font-size="140" fill="#c45c2e" letter-spacing="100.8">MODERN B RBER</text>
    </g>
    <g id="g1">
        <path id="A-copy-3" fill="#2c2520" fill-rule="evenodd" stroke="none" d="M 1643.809692 418 L 1621.215942 418 L 1623.297974 335.15625 L 1496.443481 335.15625 C 1486.608521 348.179108 1476.078979 361.947021 1464.854492 376.460449 C 1453.630127 390.973877 1442.911865 404.820251 1432.699341 418 L 1412.694458 418 C 1430.20874 395.71994 1447.414063 373.910919 1464.310913 352.572266 C 1481.207764 331.233612 1498.017334 310.01297 1514.740356 288.909668 C 1531.463257 267.806366 1548.272949 246.585724 1565.169678 225.24707 C 1582.066528 203.908417 1599.240112 182.177856 1616.690674 160.054688 L 1643.2854 160.054688 Z M 1623.901978 320.329102 L 1622.287598 177 L 1507.402954 320.329102 Z"/>
        <text id="M-REN--CUTZ" xml:space="preserve" x="139.524902" y="363" font-family="Microsoft Yi Baiti" font-size="482" fill="#2c2520">M REN  CUTZ</text>
        <path id="A-copy-2" fill="#2c2520" fill-rule="evenodd" stroke="none" d="M 663.809692 418 L 641.215942 418 L 643.297974 335.15625 L 516.443481 335.15625 C 506.608521 348.179108 496.078979 361.947021 484.854492 376.460449 C 473.630127 390.973877 462.911865 404.820251 452.699341 418 L 432.694458 418 C 450.20874 395.71994 467.414063 373.910919 484.310913 352.572266 C 501.207764 331.233612 518.017334 310.01297 534.740356 288.909668 C 551.463257 267.806366 568.272949 246.585724 585.169678 225.24707 C 602.066528 203.908417 619.240112 182.177856 636.690674 160.054688 L 663.2854 160.054688 Z M 643.901978 320.329102 L 642.287598 177 L 527.402954 320.329102 Z"/>
    </g>
</svg>
