<?xml version="1.0" encoding="UTF-8"?>
<!-- Generated by Pixelmator Pro 3.8 -->
<svg width="180" height="180" viewBox="0 0 180 180" xmlns="http://www.w3.org/2000/svg">
    <path id="Rectangle" fill="#000000" fill-rule="evenodd" stroke="none" d="M -4.152741 180 L 180 180 L 180 0 L -4.152741 0 Z"/>
    <g id="Group-copy">
        <path id="M" fill="#ffffff" fill-rule="evenodd" stroke="none" d="M 86.05394 131 L 79.991707 131 L 79.991707 57.950089 L 50.135204 131 L 43.769859 131 L 13.98914 57.950089 L 13.98914 131 L 7.926907 131 L 7.926907 48.023193 L 16.717144 48.023193 L 46.952534 123.422211 L 77.415253 48.023193 L 86.05394 48.023193 Z"/>
        <path id="A-copy-2" fill="#ffffff" fill-rule="evenodd" stroke="none" d="M 166.971497 130.986603 L 159.696808 130.986603 L 160.367172 104.312782 L 119.522881 104.312782 C 116.356247 108.505852 112.965965 112.938805 109.351936 117.611801 C 105.737946 122.284805 102.286903 126.743027 98.998703 130.986603 L 92.557579 130.986603 C 98.196785 123.812927 103.736511 116.790909 109.176918 109.920349 C 114.617325 103.049782 120.029625 96.217209 125.414063 89.422424 C 130.798462 82.627632 136.2108 75.795059 141.651169 68.924492 C 147.091583 62.053925 152.621078 55.057175 158.239777 47.934006 L 166.802673 47.934006 Z M 160.561646 99.538773 L 160.041855 53.390022 L 123.051582 99.538773 Z"/>
    </g>
</svg>
